<svg width="24" height="24" viewBox="0 0 24 24" fill="none" xmlns="http://www.w3.org/2000/svg">
<g id="Group">
<path id="Path" d="M14.0007 21.0035H4.99693C3.8919 21.0035 2.99609 20.1077 2.99609 19.0026V9.99888C2.99609 8.89385 3.8919 7.99805 4.99693 7.99805H18.0023C19.1074 7.99805 20.0032 8.89385 20.0032 9.99888V13.0001" stroke="white" stroke-linecap="round" stroke-linejoin="round"/>
<path id="Path_2" fill-rule="evenodd" clip-rule="evenodd" d="M22.0042 17.0021V17.0021C22.0042 19.7647 19.7647 22.0042 17.0021 22.0042V22.0042C14.2395 22.0042 12 19.7647 12 17.0021V17.0021C12 14.2395 14.2395 12 17.0021 12V12C19.7647 12 22.0042 14.2395 22.0042 17.0021Z" stroke="white" stroke-linecap="round" stroke-linejoin="round"/>
<path id="Path_3" fill-rule="evenodd" clip-rule="evenodd" d="M16.3544 15.2011L18.7274 16.6016C18.8671 16.684 18.9529 16.8341 18.9529 16.9963C18.9529 17.1585 18.8671 17.3086 18.7274 17.391L16.3544 18.7916C16.2126 18.8758 16.0365 18.8774 15.8932 18.7956C15.7499 18.7138 15.6617 18.5614 15.6622 18.3964V15.6012C15.6599 15.4354 15.7474 15.2812 15.891 15.1982C16.0346 15.1152 16.2119 15.1163 16.3544 15.2011V15.2011Z" stroke="white" stroke-linecap="round" stroke-linejoin="round"/>
<path id="Path_4" d="M5.49609 4.9963H17.5011" stroke="white" stroke-linecap="round" stroke-linejoin="round"/>
<path id="Path_5" d="M7.49805 1.99435H16.5018" stroke="white" stroke-linecap="round" stroke-linejoin="round"/>
</g>
</svg>
