<svg width="25" height="24" viewBox="0 0 25 24" fill="none" xmlns="http://www.w3.org/2000/svg">
<g id="Group">
<g id="Group_2">
<path id="Path" fill-rule="evenodd" clip-rule="evenodd" d="M19.5 21.1H8.5C7.395 21.1 6.5 20.205 6.5 19.1V8C6.5 6.895 7.395 6 8.5 6H19.5C20.605 6 21.5 6.895 21.5 8V19.1C21.5 20.205 20.605 21.1 19.5 21.1Z" stroke="white" stroke-linecap="round" stroke-linejoin="round"/>
<path id="Path_2" d="M19.5 6V5C19.5 3.895 18.605 3 17.5 3H5.5C4.395 3 3.5 3.895 3.5 5V17C3.5 18.105 4.395 19 5.5 19H6.5" stroke="white" stroke-linecap="round" stroke-linejoin="round"/>
<path id="Path_3" d="M13.9142 14.5858C14.6953 15.3668 14.6953 16.6332 13.9142 17.4142C13.1332 18.1953 11.8668 18.1953 11.0858 17.4142C10.3047 16.6332 10.3047 15.3668 11.0858 14.5858C11.8668 13.8047 13.1332 13.8047 13.9142 14.5858" stroke="white" stroke-linecap="round" stroke-linejoin="round"/>
<path id="Path_4" d="M17.5 10L14.5 9V16" stroke="white" stroke-linecap="round" stroke-linejoin="round"/>
</g>
</g>
</svg>
