<svg width="32" height="32" viewBox="0 0 32 32" fill="none" xmlns="http://www.w3.org/2000/svg">
<g id="Group">
<g id="Group_2">
<path id="Path" d="M24.4853 7.51472C29.1715 12.201 29.1715 19.799 24.4853 24.4853C19.799 29.1715 12.201 29.1715 7.51472 24.4853C2.82843 19.799 2.82843 12.201 7.51472 7.51472C12.201 2.82843 19.799 2.82843 24.4853 7.51472" stroke="white" stroke-width="1.5" stroke-linecap="round" stroke-linejoin="round"/>
<path id="Path_2" d="M23.0758 25.6767C22.5638 23.2233 19.6065 21.334 15.9998 21.334C12.3932 21.334 9.43583 23.2233 8.92383 25.6767" stroke="white" stroke-width="1.5" stroke-linecap="round" stroke-linejoin="round"/>
<path id="Path_3" d="M18.8284 10.5056C20.3905 12.0676 20.3905 14.6003 18.8284 16.1624C17.2663 17.7245 14.7337 17.7245 13.1716 16.1624C11.6095 14.6003 11.6095 12.0676 13.1716 10.5056C14.7337 8.94346 17.2663 8.94346 18.8284 10.5056" stroke="white" stroke-width="1.5" stroke-linecap="round" stroke-linejoin="round"/>
</g>
</g>
</svg>
