<svg width="25" height="24" viewBox="0 0 25 24" fill="none" xmlns="http://www.w3.org/2000/svg">
<g id="Group">
<g id="Group_2">
<path id="Path" d="M18.8639 5.63604C22.3787 9.15076 22.3787 14.8492 18.8639 18.3639C15.3492 21.8787 9.65074 21.8787 6.13604 18.3639C2.62132 14.8492 2.62132 9.15074 6.13604 5.63604C9.65076 2.12132 15.3492 2.12132 18.8639 5.63604" stroke="#5947D5" stroke-width="1.5" stroke-linecap="round" stroke-linejoin="round"/>
<path id="Path_2" d="M17.8074 19.257C17.4234 17.417 15.2054 16 12.5004 16C9.79536 16 7.57736 17.417 7.19336 19.257" stroke="#5947D5" stroke-width="1.5" stroke-linecap="round" stroke-linejoin="round"/>
<path id="Path_3" d="M14.6213 7.87868C15.7929 9.05025 15.7929 10.9497 14.6213 12.1213C13.4497 13.2929 11.5502 13.2929 10.3787 12.1213C9.20711 10.9497 9.20711 9.05025 10.3787 7.87868C11.5502 6.70711 13.4497 6.70711 14.6213 7.87868" stroke="#5947D5" stroke-width="1.5" stroke-linecap="round" stroke-linejoin="round"/>
</g>
</g>
</svg>
