<svg width="24" height="24" viewBox="0 0 24 24" fill="none" xmlns="http://www.w3.org/2000/svg">
<g id="Group">
<g id="Group_2">
<path id="Path" fill-rule="evenodd" clip-rule="evenodd" d="M18.9556 21.003H5.04185C3.93639 21.003 3.04102 20.1077 3.04102 19.0022V10.9989C3.04102 9.89342 3.93639 8.99805 5.04185 8.99805H18.9556C20.0611 8.99805 20.9565 9.89342 20.9565 10.9989V19.0022C20.9565 20.1077 20.0601 21.003 18.9556 21.003Z" stroke="white" stroke-linecap="round" stroke-linejoin="round"/>
<path id="Path_2" d="M11.9873 15.4409C12.5736 16.0271 12.5736 16.9775 11.9873 17.5628C11.4011 18.148 10.4507 18.149 9.86546 17.5628C9.27922 16.9765 9.27922 16.0261 9.86546 15.4409C10.4517 14.8556 11.4011 14.8556 11.9873 15.4409" stroke="white" stroke-linecap="round" stroke-linejoin="round"/>
<path id="Path_3" d="M14.3805 12.7938L12.4277 12.1426V16.5014" stroke="white" stroke-linecap="round" stroke-linejoin="round"/>
<path id="Path_4" d="M4.77734 8.9993V7.99888C4.77734 6.89342 5.67272 5.99805 6.77818 5.99805H17.2175C18.323 5.99805 19.2184 6.89342 19.2184 7.99888V8.9993" stroke="white" stroke-linecap="round" stroke-linejoin="round"/>
<path id="Path_5" d="M6.51172 5.99734V4.99693C6.51172 3.89147 7.40709 2.99609 8.51255 2.99609H15.4845C16.5899 2.99609 17.4853 3.89147 17.4853 4.99693V5.99734" stroke="white" stroke-linecap="round" stroke-linejoin="round"/>
</g>
</g>
</svg>
