<svg width="24" height="25" viewBox="0 0 24 25" fill="none" xmlns="http://www.w3.org/2000/svg">
<g id="Group">
<path id="Path" d="M14.5582 14.0577C13.9186 15.1361 12.6764 15.7036 11.4426 15.4811C10.2087 15.2585 9.24301 14.2928 9.02048 13.059C8.79795 11.8251 9.36544 10.5829 10.4438 9.94336" stroke="#505862" stroke-width="1.5" stroke-linecap="round" stroke-linejoin="round"/>
<path id="Path_2" d="M17.9964 17.4966C16.2716 18.8048 14.1646 19.5099 11.9998 19.5033C8.41273 19.5672 5.09837 17.5957 3.44226 14.4132C2.84737 13.2074 2.84737 11.7934 3.44226 10.5876C4.27051 8.93821 5.59081 7.58695 7.22056 6.7207" stroke="#505862" stroke-width="1.5" stroke-linecap="round" stroke-linejoin="round"/>
<path id="Path_3" d="M20.4268 14.635C20.4669 14.559 20.5191 14.4908 20.5571 14.4133C21.152 13.2075 21.152 11.7935 20.5571 10.5877C18.901 7.40513 15.5866 5.43372 11.9995 5.4976C11.7746 5.4976 11.556 5.52761 11.334 5.54224" stroke="#505862" stroke-width="1.5" stroke-linecap="round" stroke-linejoin="round"/>
<path id="Path_4" d="M21.0032 20.5032L3.99609 3.49609" stroke="#505862" stroke-width="1.5" stroke-linecap="round" stroke-linejoin="round"/>
</g>
</svg>
