<svg width="24" height="24" viewBox="0 0 24 24" fill="none" xmlns="http://www.w3.org/2000/svg">
<g id="Group">
<g id="Group_2">
<path id="Path" fill-rule="evenodd" clip-rule="evenodd" d="M18.5324 9H5.46843C4.90043 9 4.44043 8.54 4.44043 7.973V7.027C4.44043 6.46 4.90043 6 5.46843 6H18.5334C19.1004 6 19.5604 6.46 19.5604 7.027V7.972C19.5604 8.54 19.1004 9 18.5324 9V9Z" stroke="white" stroke-width="1.5" stroke-linecap="round" stroke-linejoin="round"/>
<path id="Path_2" d="M18 9L17.153 19.166C17.066 20.203 16.2 21 15.16 21H8.84C7.8 21 6.933 20.203 6.847 19.166L6 9" stroke="white" stroke-width="1.5" stroke-linecap="round" stroke-linejoin="round"/>
<path id="Path_3" d="M8 6L9.224 3.553C9.393 3.214 9.739 3 10.118 3H13.882C14.261 3 14.607 3.214 14.776 3.553L16 6" stroke="white" stroke-width="1.5" stroke-linecap="round" stroke-linejoin="round"/>
<path id="Path_4" d="M12 12V18" stroke="white" stroke-width="1.5" stroke-linecap="round" stroke-linejoin="round"/>
<path id="Path_5" d="M15.0009 12L14.5909 18" stroke="white" stroke-width="1.5" stroke-linecap="round" stroke-linejoin="round"/>
<path id="Path_6" d="M9.00008 12L9.41008 18" stroke="white" stroke-width="1.5" stroke-linecap="round" stroke-linejoin="round"/>
</g>
</g>
</svg>
