<svg width="28" height="41" viewBox="0 0 28 41" fill="none" xmlns="http://www.w3.org/2000/svg">
<path d="M27 19.211C26.9964 22.2342 25.997 24.9836 24.3025 27.1433C24.3003 27.1464 24.2982 27.1486 24.296 27.1517C24.2903 27.1586 24.2853 27.1647 24.2796 27.1716L24.2667 27.1877L24.2625 27.1922C24.0196 27.4836 23.7552 27.6679 23.5402 27.6756H23.5231C23.1452 27.6526 23.2473 26.4275 23.288 25.9625C23.288 25.9571 23.2895 25.9518 23.2895 25.9457C23.5881 22.7841 23.063 19.4825 21.8693 16.7056C19.6982 11.5678 16.367 7.21085 12.475 3.91695C12.9501 5.08706 13.2737 6.37571 13.408 7.67431C13.5388 8.92472 13.5052 10.2134 13.3009 11.4546C13.2716 11.6374 13.2373 11.8202 13.2009 12.0014C13.2002 12.006 13.1987 12.0098 13.198 12.0144C13.1866 12.071 13.1744 12.1276 13.1623 12.1834C13.1359 12.3035 13.108 12.4221 13.0794 12.5414C13.0773 12.5482 13.0758 12.5544 13.0744 12.5605C12.8451 13.4866 12.5122 14.4044 12.1014 15.2502C11.6271 16.223 11.0327 17.1537 10.3797 18.0072C10.364 18.0287 10.3483 18.0493 10.3319 18.07C10.3305 18.0722 10.3283 18.0745 10.3262 18.0768C10.1947 18.2489 10.0618 18.4172 9.92468 18.5831C8.32731 20.5547 6.43346 22.2357 4.98754 24.3465C1.48203 29.5722 3.90167 37.0671 9.49319 38.9775C9.49819 38.9798 9.50319 38.9813 9.50891 38.9828C9.60821 39.0027 9.64392 38.8674 9.55891 38.8108C4.94253 35.7287 2.60291 29.0346 6.23129 24.1691C6.23129 24.1691 10.7791 18.2527 12.7201 18.1281C13.1487 18.1005 12.6394 19.5903 12.4008 20.3039L12.4 20.3054C10.4047 26.2929 11.052 33.5353 14.086 38.9836C14.3503 39.4218 14.2224 39.8004 13.9045 39.9755C13.9024 39.9771 13.8995 39.9778 13.8974 39.9794C13.8838 39.987 13.8702 39.9939 13.8581 40C5.88053 44.1803 -2.70714 35.4083 0.811224 26.6783H0.809795C2.11355 23.5007 4.34959 21.214 6.4999 18.8431C6.77565 18.5334 7.04212 18.2145 7.29502 17.8841C7.66935 17.4015 8.01798 16.896 8.34088 16.3729C9.28959 14.8395 10.0125 13.1409 10.4683 11.3659C10.4819 11.3139 10.4955 11.2627 10.5076 11.2106C10.5212 11.1579 10.5341 11.1051 10.5462 11.0523C10.7362 10.2608 10.872 9.45471 10.9577 8.63946C10.9577 8.6364 10.9577 8.63334 10.9584 8.63105C11.0213 8.00851 11.057 7.38981 11.0577 6.76116C11.0663 5.27443 10.897 3.81905 10.5769 2.43633C10.4248 1.77633 10.2383 1.13238 10.019 0.505266C10.0168 0.498382 10.014 0.492264 10.0118 0.485381C9.86967 0.0463979 10.1326 0.00051111 10.4612 0.154997C10.469 0.15882 10.4776 0.16188 10.4855 0.165703C10.4948 0.170292 10.5062 0.174116 10.5155 0.178705C15.3705 2.32009 21.6014 6.72522 24.9626 12.2041C24.9654 12.2072 24.9668 12.2094 24.9676 12.2117C26.2763 14.2545 26.9929 16.6123 27 19.211Z" fill="#5E4BE2" stroke="#5E4BE2" stroke-width="0.152531" stroke-miterlimit="10"/>
</svg>
