<svg width="48" height="48" viewBox="0 0 48 48" fill="none" xmlns="http://www.w3.org/2000/svg">
<g id="Group">
<g id="Group_2">
<path id="Path" fill-rule="evenodd" clip-rule="evenodd" d="M36 42H12C8.686 42 6 39.314 6 36V12C6 8.686 8.686 6 12 6H36C39.314 6 42 8.686 42 12V36C42 39.314 39.314 42 36 42Z" stroke="#5E4BE2" stroke-width="1.5" stroke-linecap="round" stroke-linejoin="round"/>
<path id="Path_2" d="M6 34.9728L15.224 25.7488C16.006 24.9668 17.272 24.9668 18.052 25.7488L20.864 28.5608L30.018 19.4088C30.8 18.6268 32.066 18.6268 32.846 19.4088L42 28.5628" stroke="#5E4BE2" stroke-width="1.5" stroke-linecap="round" stroke-linejoin="round"/>
<path id="Path_3" d="M17.0303 14.8134C17.3232 15.1063 17.3232 15.5812 17.0303 15.8741C16.7374 16.167 16.2626 16.167 15.9697 15.8741C15.6768 15.5812 15.6768 15.1063 15.9697 14.8134C16.2626 14.5205 16.7374 14.5205 17.0303 14.8134" stroke="#5E4BE2" stroke-width="1.5" stroke-linecap="round" stroke-linejoin="round"/>
</g>
</g>
</svg>
