<svg width="12" height="14" viewBox="0 0 12 14" fill="none" xmlns="http://www.w3.org/2000/svg">
<path d="M10.4569 7.43217L11.2024 6.99968L10.4569 6.56719L1.7509 1.51669L1 1.08108V1.94918V12.0502V12.9183L1.7509 12.4827L10.4569 7.43217ZM11.1431 6.38815L11.1431 6.38816L11.1456 6.3896C11.253 6.45112 11.3423 6.53995 11.4045 6.64708C11.4666 6.75421 11.4993 6.87584 11.4993 6.99968C11.4993 7.12352 11.4666 7.24515 11.4045 7.35228C11.3423 7.45941 11.253 7.54824 11.1456 7.60977L11.1456 7.60976L11.1431 7.61121L1.59857 13.1492L1.59839 13.1493C1.11546 13.4298 0.5 13.0905 0.5 12.5377V1.46168C0.5 0.908841 1.11546 0.569579 1.59839 0.850051L1.59857 0.850152L11.1431 6.38815Z" stroke="white"/>
</svg>
