<svg width="32" height="32" viewBox="0 0 32 32" fill="none" xmlns="http://www.w3.org/2000/svg">
<g id="bi:play">
<path id="Vector" d="M21.8589 16.4325L22.6044 16L21.8589 15.5675L10.2509 8.83353L9.5 8.39792V9.26602V22.734V23.6021L10.2509 23.1665L21.8589 16.4325ZM22.9411 15.0405L22.9411 15.0405L22.9436 15.0419C23.1123 15.1386 23.2526 15.2781 23.3501 15.4463C23.4477 15.6145 23.499 15.8055 23.499 16C23.499 16.1945 23.4477 16.3855 23.3501 16.5538C23.2526 16.722 23.1123 16.8615 22.9436 16.9581L22.9436 16.9581L22.9411 16.9595L10.2151 24.3435L10.2149 24.3436C9.47196 24.7751 8.5 24.2634 8.5 23.384V8.61602C8.5 7.73668 9.47196 7.22492 10.2149 7.65639L10.2151 7.65649L22.9411 15.0405Z" stroke="white"/>
</g>
</svg>
