<svg width="24" height="24" viewBox="0 0 24 24" fill="none" xmlns="http://www.w3.org/2000/svg">
<g id="bi:play">
<path id="Vector" d="M16.4569 12.4322L17.2024 11.9997L16.4569 11.5672L7.7509 6.51669L7 6.08108V6.94918V17.0502V17.9183L7.7509 17.4827L16.4569 12.4322ZM17.1431 11.3882L17.1431 11.3882L17.1456 11.3896C17.253 11.4511 17.3423 11.5399 17.4045 11.6471C17.4666 11.7542 17.4993 11.8758 17.4993 11.9997C17.4993 12.1235 17.4666 12.2452 17.4045 12.3523C17.3423 12.4594 17.253 12.5482 17.1456 12.6098L17.1456 12.6098L17.1431 12.6112L7.59857 18.1492L7.59839 18.1493C7.11546 18.4298 6.5 18.0905 6.5 17.5377V6.46168C6.5 5.90884 7.11546 5.56958 7.59839 5.85005L7.59857 5.85015L17.1431 11.3882Z" stroke="white"/>
</g>
</svg>
