<svg width="24" height="24" viewBox="0 0 24 24" fill="none" xmlns="http://www.w3.org/2000/svg">
<g id="Group">
<g id="Group_2">
<path id="Path" fill-rule="evenodd" clip-rule="evenodd" d="M16 17.9999V17.9999C15.172 17.9999 14.5 17.3279 14.5 16.4999V7.49991C14.5 6.67191 15.172 5.99991 16 5.99991V5.99991C16.828 5.99991 17.5 6.67191 17.5 7.49991V16.4999C17.5 17.3279 16.828 17.9999 16 17.9999Z" stroke="white" stroke-linecap="round" stroke-linejoin="round"/>
<path id="Path_2" fill-rule="evenodd" clip-rule="evenodd" d="M8 17.9999V17.9999C7.172 17.9999 6.5 17.3279 6.5 16.4999V7.49991C6.5 6.67191 7.172 5.99991 8 5.99991V5.99991C8.828 5.99991 9.5 6.67191 9.5 7.49991V16.4999C9.5 17.3279 8.828 17.9999 8 17.9999Z" stroke="white" stroke-linecap="round" stroke-linejoin="round"/>
</g>
</g>
</svg>
