<svg width="43" height="43" viewBox="0 0 43 43" fill="none" xmlns="http://www.w3.org/2000/svg">
<rect width="43" height="43" fill="#0F0F0F" fill-opacity="0.3"/>
<path fill-rule="evenodd" clip-rule="evenodd" d="M36.5 21.5V21.5C36.5 29.785 29.785 36.5 21.5 36.5V36.5C13.215 36.5 6.5 29.785 6.5 21.5V21.5C6.5 13.215 13.215 6.5 21.5 6.5V6.5C29.785 6.5 36.5 13.215 36.5 21.5Z" stroke="white" stroke-width="1.5" stroke-linecap="round" stroke-linejoin="round"/>
<path fill-rule="evenodd" clip-rule="evenodd" d="M19.7348 16.5968L26.2048 20.4235C27.0231 20.9068 27.0231 22.0918 26.2048 22.5751L19.7348 26.4018C18.9015 26.8951 17.8481 26.2935 17.8481 25.3251V17.6735C17.8481 16.7051 18.9015 16.1034 19.7348 16.5968V16.5968Z" stroke="white" stroke-width="1.5" stroke-linecap="round" stroke-linejoin="round"/>
</svg>
